<?xml version="1.0" encoding="UTF-8" standalone="no"?>
<!DOCTYPE svg PUBLIC "-//W3C//DTD SVG 1.1//EN"
 "http://www.w3.org/Graphics/SVG/1.1/DTD/svg11.dtd">
<!-- Generated by graphviz version 2.40.1 (20161225.0304)
 -->
<!-- Title: dependencies Pages: 1 -->
<svg width="504pt" height="284pt"
 viewBox="0.00 0.00 504.00 284.00" xmlns="http://www.w3.org/2000/svg" xmlns:xlink="http://www.w3.org/1999/xlink">
<g id="graph0" class="graph" transform="scale(1 1) rotate(0) translate(4 280)">
<title>dependencies</title>
<polygon fill="#ffffff" stroke="transparent" points="-4,4 -4,-280 500,-280 500,4 -4,4"/>
<text text-anchor="start" x="227.0091" y="-42.4" font-family="sans-serif" font-weight="bold" font-size="14.00" fill="#000000">Legend</text>
<polygon fill="#ffffb3" stroke="transparent" points="14,-10 14,-30 34,-30 34,-10 14,-10"/>
<text text-anchor="start" x="37.629" y="-15.4" font-family="sans-serif" font-size="14.00" fill="#000000"> &#160;Declarations</text>
<polygon fill="#8dd3c7" stroke="transparent" points="127,-10 127,-30 147,-30 147,-10 127,-10"/>
<text text-anchor="start" x="150.7251" y="-15.4" font-family="sans-serif" font-size="14.00" fill="#000000"> &#160;Module</text>
<polygon fill="#80b1d3" stroke="transparent" points="213,-10 213,-30 233,-30 233,-10 213,-10"/>
<text text-anchor="start" x="236.7812" y="-15.4" font-family="sans-serif" font-size="14.00" fill="#000000"> &#160;Bootstrap</text>
<polygon fill="#fdb462" stroke="transparent" points="310,-10 310,-30 330,-30 330,-10 310,-10"/>
<text text-anchor="start" x="333.6732" y="-15.4" font-family="sans-serif" font-size="14.00" fill="#000000"> &#160;Providers</text>
<polygon fill="#fb8072" stroke="transparent" points="406,-10 406,-30 426,-30 426,-10 406,-10"/>
<text text-anchor="start" x="429.7258" y="-15.4" font-family="sans-serif" font-size="14.00" fill="#000000"> &#160;Exports</text>
<g id="clust1" class="cluster">
<title>cluster_AppModule</title>
<polygon fill="none" stroke="#000000" stroke-dasharray="1,5" points="106,-70 106,-268 390,-268 390,-70 106,-70"/>
</g>
<g id="clust2" class="cluster">
<title>cluster_AppModule_declarations</title>
<polygon fill="none" stroke="#000000" points="114,-78 114,-130 382,-130 382,-78 114,-78"/>
</g>
<g id="clust8" class="cluster">
<title>cluster_AppModule_bootstrap</title>
<polygon fill="none" stroke="#000000" points="195,-208 195,-260 283,-260 283,-208 195,-208"/>
</g>
<!-- HomePage -->
<g id="node1" class="node">
<title>HomePage</title>
<polygon fill="#ffffb3" stroke="#000000" points="373.9248,-122 296.0752,-122 296.0752,-86 373.9248,-86 373.9248,-122"/>
<text text-anchor="middle" x="335" y="-99.8" font-family="Times,serif" font-size="14.00" fill="#000000">HomePage</text>
</g>
<!-- AppModule -->
<g id="node4" class="node">
<title>AppModule</title>
<polygon fill="#8dd3c7" stroke="#000000" points="280.6571,-187 277.6571,-191 256.6571,-191 253.6571,-187 197.3429,-187 197.3429,-151 280.6571,-151 280.6571,-187"/>
<text text-anchor="middle" x="239" y="-164.8" font-family="Times,serif" font-size="14.00" fill="#000000">AppModule</text>
</g>
<!-- HomePage&#45;&gt;AppModule -->
<g id="edge1" class="edge">
<title>HomePage&#45;&gt;AppModule</title>
<path fill="none" stroke="#000000" d="M335,-122.1061C335,-141.3391 335,-169 335,-169 335,-169 290.8277,-169 290.8277,-169"/>
<polygon fill="#000000" stroke="#000000" points="290.8278,-165.5001 280.8277,-169 290.8277,-172.5001 290.8278,-165.5001"/>
</g>
<!-- InputsPage -->
<g id="node2" class="node">
<title>InputsPage</title>
<polygon fill="#ffffb3" stroke="#000000" points="278.2079,-122 199.7921,-122 199.7921,-86 278.2079,-86 278.2079,-122"/>
<text text-anchor="middle" x="239" y="-99.8" font-family="Times,serif" font-size="14.00" fill="#000000">InputsPage</text>
</g>
<!-- InputsPage&#45;&gt;AppModule -->
<g id="edge2" class="edge">
<title>InputsPage&#45;&gt;AppModule</title>
<path fill="none" stroke="#000000" d="M239,-122.1061C239,-122.1061 239,-140.991 239,-140.991"/>
<polygon fill="#000000" stroke="#000000" points="235.5001,-140.9909 239,-150.991 242.5001,-140.991 235.5001,-140.9909"/>
</g>
<!-- MyApp -->
<g id="node3" class="node">
<title>MyApp</title>
<polygon fill="#ffffb3" stroke="#000000" points="181.5529,-122 122.4471,-122 122.4471,-86 181.5529,-86 181.5529,-122"/>
<text text-anchor="middle" x="152" y="-99.8" font-family="Times,serif" font-size="14.00" fill="#000000">MyApp</text>
</g>
<!-- MyApp&#45;&gt;AppModule -->
<g id="edge3" class="edge">
<title>MyApp&#45;&gt;AppModule</title>
<path fill="none" stroke="#000000" d="M152,-122.1061C152,-141.3391 152,-169 152,-169 152,-169 187.2837,-169 187.2837,-169"/>
<polygon fill="#000000" stroke="#000000" points="187.2838,-172.5001 197.2837,-169 187.2837,-165.5001 187.2838,-172.5001"/>
</g>
<!-- IonicApp  -->
<g id="node5" class="node">
<title>IonicApp </title>
<polygon fill="#80b1d3" stroke="#000000" points="275.3734,-252 202.6266,-252 202.6266,-216 275.3734,-216 275.3734,-252"/>
<text text-anchor="middle" x="239" y="-229.8" font-family="Times,serif" font-size="14.00" fill="#000000">IonicApp </text>
</g>
<!-- AppModule&#45;&gt;IonicApp  -->
<g id="edge4" class="edge">
<title>AppModule&#45;&gt;IonicApp </title>
<path fill="none" stroke="#000000" stroke-dasharray="1,5" d="M239,-187.1061C239,-187.1061 239,-205.991 239,-205.991"/>
<polygon fill="#000000" stroke="#000000" points="235.5001,-205.9909 239,-215.991 242.5001,-205.991 235.5001,-205.9909"/>
</g>
</g>
</svg>
